<svg xmlns="http://www.w3.org/2000/svg" width="55" height="37" viewBox="0 0 55 37">
  <g id="MasterCard-Logo" transform="translate(-2842.758 392.796)">
    <rect id="White-Backing" width="55" height="37" rx="5" transform="translate(2842.758 -392.796)" fill="#fff"/>
    <g id="Group_19" data-name="Group 19" transform="translate(2853.983 -387.655)">
      <path id="Path_2341" data-name="Path 2341" d="M2918.324-240.657v-1.7a1,1,0,0,0-1.074-1.074,1.115,1.115,0,0,0-.961.48.988.988,0,0,0-.9-.48.913.913,0,0,0-.791.4v-.339H2914v2.713h.594v-1.5c0-.48.254-.706.65-.706s.594.254.594.706v1.5h.594v-1.5a.625.625,0,0,1,.65-.706c.4,0,.594.254.594.706v1.5Zm8.789-2.713h-.961v-.82h-.594v.82h-.537v.537h.537v1.244c0,.622.255.989.933.989a1.58,1.58,0,0,0,.735-.2l-.169-.509a.93.93,0,0,1-.509.141c-.282,0-.4-.17-.4-.452v-1.215h.961v-.537Zm5.03-.056a.8.8,0,0,0-.707.4v-.339h-.594v2.713h.594v-1.526c0-.452.2-.707.565-.707a1.656,1.656,0,0,1,.367.057l.17-.565a1.869,1.869,0,0,0-.4-.028Zm-7.6.283a1.94,1.94,0,0,0-1.1-.283c-.678,0-1.131.339-1.131.876,0,.452.339.706.933.791l.282.028c.311.056.48.141.48.282,0,.2-.226.339-.622.339a1.56,1.56,0,0,1-.9-.283l-.283.452a2,2,0,0,0,1.159.339c.791,0,1.244-.368,1.244-.876,0-.48-.367-.735-.933-.82l-.282-.028c-.254-.028-.452-.085-.452-.254,0-.2.2-.311.509-.311a2.034,2.034,0,0,1,.848.226l.255-.48Zm15.77-.283a.8.8,0,0,0-.707.4v-.339h-.594v2.713h.594v-1.526c0-.452.2-.707.565-.707a1.656,1.656,0,0,1,.367.057l.169-.565a1.865,1.865,0,0,0-.4-.028Zm-7.574,1.413a1.358,1.358,0,0,0,1.441,1.413,1.407,1.407,0,0,0,.961-.311l-.283-.48a1.143,1.143,0,0,1-.707.254.8.8,0,0,1-.82-.876.834.834,0,0,1,.82-.876,1.143,1.143,0,0,1,.707.254l.283-.48a1.407,1.407,0,0,0-.961-.311,1.358,1.358,0,0,0-1.441,1.413Zm5.483,0v-1.357h-.594v.339a1.021,1.021,0,0,0-.848-.4,1.353,1.353,0,0,0-1.356,1.413,1.353,1.353,0,0,0,1.356,1.413.951.951,0,0,0,.848-.4v.339h.594Zm-2.176,0a.817.817,0,0,1,.82-.876.818.818,0,0,1,.82.876.834.834,0,0,1-.82.876.833.833,0,0,1-.82-.876Zm-7.094-1.413a1.321,1.321,0,0,0-1.356,1.413,1.328,1.328,0,0,0,1.385,1.413,1.729,1.729,0,0,0,1.1-.368l-.283-.424a1.351,1.351,0,0,1-.791.283.763.763,0,0,1-.82-.65h2.007v-.226a1.249,1.249,0,0,0-1.244-1.441Zm0,.509a.661.661,0,0,1,.678.65h-1.413a.716.716,0,0,1,.735-.65Zm14.724.9v-2.43h-.594v1.413a1.021,1.021,0,0,0-.848-.4,1.353,1.353,0,0,0-1.357,1.413,1.353,1.353,0,0,0,1.357,1.413.951.951,0,0,0,.848-.4v.339h.594Zm-2.176,0a.817.817,0,0,1,.819-.876.818.818,0,0,1,.82.876.834.834,0,0,1-.82.876.832.832,0,0,1-.819-.876Zm-19.839,0v-1.357h-.594v.339a1.021,1.021,0,0,0-.848-.4,1.353,1.353,0,0,0-1.356,1.413,1.353,1.353,0,0,0,1.356,1.413.951.951,0,0,0,.848-.4v.339h.594Zm-2.2,0a.817.817,0,0,1,.82-.876.818.818,0,0,1,.82.876.834.834,0,0,1-.82.876A.832.832,0,0,1,2919.454-242.014Z" transform="translate(-2912.333 267.148)"/>
      <rect id="Rectangle_387" data-name="Rectangle 387" width="8.902" height="15.996" transform="translate(12.011 2.176)" fill="#ff5f00"/>
      <path id="Path_2342" data-name="Path 2342" d="M2917.362-354.213a10.2,10.2,0,0,1,3.872-8,10.112,10.112,0,0,0-6.274-2.176,10.168,10.168,0,0,0-10.174,10.174,10.168,10.168,0,0,0,10.174,10.174,10.112,10.112,0,0,0,6.274-2.176A10.159,10.159,0,0,1,2917.362-354.213Z" transform="translate(-2904.786 364.387)" fill="#eb001b"/>
      <path id="Path_2343" data-name="Path 2343" d="M3012.284-354.213a10.168,10.168,0,0,1-10.174,10.174,10.113,10.113,0,0,1-6.274-2.176,10.116,10.116,0,0,0,3.872-8,10.2,10.2,0,0,0-3.872-8,10.113,10.113,0,0,1,6.274-2.176A10.186,10.186,0,0,1,3012.284-354.213Z" transform="translate(-2979.36 364.387)" fill="#f79e1b"/>
    </g>
  </g>
</svg>
