<svg xmlns="http://www.w3.org/2000/svg" width="55" height="37" viewBox="0 0 55 37">
  <g id="PayPal-Logo" transform="translate(-3252.588 705.096)">
    <rect id="Rectangle_388" data-name="Rectangle 388" width="55" height="37" rx="5" transform="translate(3252.588 -705.096)" fill="#fff"/>
    <g id="Group_21" data-name="Group 21" transform="translate(3258.016 -692.439)">
      <path id="Path_2349" data-name="Path 2349" d="M3357.9-615.83h.173a2.768,2.768,0,0,0,1.209-.178.639.639,0,0,0,.315-.606.576.576,0,0,0-.27-.528,1.672,1.672,0,0,0-.85-.167h-.329Zm-2.446,3.66,1.095-6.527h1.893a8.387,8.387,0,0,1,1.181.061,2.333,2.333,0,0,1,.688.2,1.782,1.782,0,0,1,.788.695,2.032,2.032,0,0,1,.262,1.058,2.333,2.333,0,0,1-.281,1.132,2,2,0,0,1-.759.8,2.048,2.048,0,0,1-.67.235,7.672,7.672,0,0,1-1.208.068h-.773l-.386,2.273Zm7.751-2.09a.915.915,0,0,0,.278.7,1.028,1.028,0,0,0,.735.263,1.075,1.075,0,0,0,.832-.368,1.314,1.314,0,0,0,.333-.918.891.891,0,0,0-.278-.68,1.021,1.021,0,0,0-.726-.26,1.093,1.093,0,0,0-.841.36,1.289,1.289,0,0,0-.333.909Zm1.853,1.488a2.39,2.39,0,0,1-.766.573,2.125,2.125,0,0,1-.906.194,1.722,1.722,0,0,1-1.343-.585,2.179,2.179,0,0,1-.525-1.515,2.752,2.752,0,0,1,.711-1.94,2.312,2.312,0,0,1,1.773-.772,1.951,1.951,0,0,1,.885.2,2.064,2.064,0,0,1,.707.6l.107-.651h1.589l-.752,4.5h-1.561Zm3.9.377-1.351-4.275h1.735l.415,1.943.029.115a3.691,3.691,0,0,1,.1.667,3.574,3.574,0,0,1,.135-.371c.055-.133.12-.276.2-.431l.984-1.924h1.8l-3.69,6.491h-1.754Z" transform="translate(-3342.53 621.866)" fill="#303371" fill-rule="evenodd"/>
      <path id="Path_2350" data-name="Path 2350" d="M3453.781-617.324h.162a2.422,2.422,0,0,0,1.125-.177.651.651,0,0,0,.293-.606.589.589,0,0,0-.251-.528,1.47,1.47,0,0,0-.791-.167h-.306Zm-2.277,3.661,1.02-6.527h1.761a7.255,7.255,0,0,1,1.1.061,2.053,2.053,0,0,1,.64.2,1.7,1.7,0,0,1,.734.695,2.155,2.155,0,0,1,.244,1.057,2.471,2.471,0,0,1-.262,1.132,1.944,1.944,0,0,1-.707.8,1.819,1.819,0,0,1-.624.235,6.659,6.659,0,0,1-1.126.068h-.719l-.358,2.273Zm7.217-2.09a.949.949,0,0,0,.259.7.922.922,0,0,0,.685.263.973.973,0,0,0,.775-.368,1.374,1.374,0,0,0,.309-.918.926.926,0,0,0-.258-.68.914.914,0,0,0-.677-.26.99.99,0,0,0-.783.36,1.347,1.347,0,0,0-.309.909Zm1.725,1.487a2.238,2.238,0,0,1-.713.574,1.869,1.869,0,0,1-.843.194,1.556,1.556,0,0,1-1.25-.585,2.282,2.282,0,0,1-.488-1.515,2.873,2.873,0,0,1,.662-1.94,2.086,2.086,0,0,1,1.651-.772,1.729,1.729,0,0,1,.824.195,1.964,1.964,0,0,1,.657.6l.1-.651h1.479l-.7,4.5h-1.453Zm3.671-6.307h1.573l-1.087,6.91h-1.568Z" transform="translate(-3421.497 623.398)" fill="#00aed0" fill-rule="evenodd"/>
      <path id="Path_2351" data-name="Path 2351" d="M3295.621-613.981l1.254-8.127c.03-.234.134-.406.321-.406h2.1a9.65,9.65,0,0,1,1.474.082,2.756,2.756,0,0,1,.858.27,2.277,2.277,0,0,1,.984.931,2.878,2.878,0,0,1,.326,1.415,3.318,3.318,0,0,1-.351,1.515,2.6,2.6,0,0,1-.947,1.075,3.506,3.506,0,0,1-.835.314,7.368,7.368,0,0,1-1.943.208c-.244.061-.343.256-.382.547l-.338,2.174a.5.5,0,0,1-.365.348h-1.908a.255.255,0,0,1-.248-.345Z" transform="translate(-3293.159 624.984)" fill="#00aed0" fill-rule="evenodd"/>
      <path id="Path_2352" data-name="Path 2352" d="M3282.235-626.172l1.424-9.358c.034-.27.152-.468.365-.468h2.386c.742,0,1.3.118,1.674.094,3.988-.26,3.485,4.124.988,6a3.1,3.1,0,0,1-.949.361,8.28,8.28,0,0,1-2.206.24c-.276.071-.389.294-.434.629l-.384,2.5a.578.578,0,0,1-.415.4l-2.169,0a.292.292,0,0,1-.28-.4Z" transform="translate(-3282.223 635.998)" fill="#303371" fill-rule="evenodd"/>
    </g>
  </g>
</svg>
