<svg xmlns="http://www.w3.org/2000/svg" width="17.869" height="18.772" viewBox="0 0 17.869 18.772">
  <path id="Search-icon" d="M17.138,16.188,13,11.788a7.249,7.249,0,0,0,1.647-4.613A7.107,7.107,0,0,0,7.628,0,7.107,7.107,0,0,0,.608,7.175a7.107,7.107,0,0,0,7.019,7.175,6.841,6.841,0,0,0,4.021-1.3l4.169,4.433a.9.9,0,0,0,1.294.026A.952.952,0,0,0,17.138,16.188ZM7.628,1.872a5.253,5.253,0,0,1,5.188,5.3,5.253,5.253,0,0,1-5.188,5.3,5.253,5.253,0,0,1-5.188-5.3A5.253,5.253,0,0,1,7.628,1.872Z" transform="translate(-0.108 0.5)" fill="#cbcbcb" stroke="#cbcbcb" stroke-width="1"/>
</svg>
