<svg xmlns="http://www.w3.org/2000/svg" width="40.406" height="31.079" viewBox="0 0 40.406 31.079">
  <g id="Twitter-Logo" transform="translate(1.861 1.153)">
    <path id="Path_2294" data-name="Path 2294" d="M1497.684,881.581a20.292,20.292,0,0,1-10.418-2.911L1485,877.313l2.641.045c.086,0,.223.011.44.011a15.877,15.877,0,0,0,7.491-2.015,8.091,8.091,0,0,1-5.348-5.14l-.416-1.237,1.133.295a8.034,8.034,0,0,1-3.135-5.93l-.062-1.144,1.05.458q.288.126.584.222a8,8,0,0,1-.512-8.743l.519-.944.659.853a17.816,17.816,0,0,0,12.946,6.914c-.031-.317-.053-.609-.053-.7a7.634,7.634,0,0,1,7.708-7.709,7.722,7.722,0,0,1,5.411,2.221,14.942,14.942,0,0,0,3.785-1.587l1.669-1.027-.63,1.856a7.7,7.7,0,0,1-1.354,2.422c.322-.105.639-.226.964-.368l2-.979-.842,1.809a7.73,7.73,0,0,1-3.294,3.515,20.522,20.522,0,0,1-5.376,14.516,20.024,20.024,0,0,1-15.171,6.654Zm-7.425-2.961a18.744,18.744,0,0,0,7.424,1.547h.121a18.642,18.642,0,0,0,14.131-6.187,18.933,18.933,0,0,0,4.98-13.918l-.047-.5.452-.21a6.309,6.309,0,0,0,1.9-1.363,15.772,15.772,0,0,1-1.989.356l-.542.066-.422-1.071.492-.379a6.337,6.337,0,0,0,1.775-1.544,12.724,12.724,0,0,1-2.581.816l-.387.072-.265-.291a6.306,6.306,0,0,0-4.652-2.056,6.235,6.235,0,0,0-6.3,6.3c0,.188.093,1.039.127,1.259l.321.912-1.02-.022a19.21,19.21,0,0,1-14.126-6.615,6.8,6.8,0,0,0,2.093,7.562l1.656,1.3-2.1-.037a8,8,0,0,1-1.93-.267,6.626,6.626,0,0,0,5.062,5.018l2.787.6-2.743.772a5.988,5.988,0,0,1-1.613.2c-.277,0-.542-.015-.787-.037a6.664,6.664,0,0,0,5.432,3.359l1.986.1-1.6,1.177A16.878,16.878,0,0,1,1490.259,878.62Z" transform="translate(-1485 -852.156)" fill="#fff" stroke="#fff" stroke-miterlimit="10" stroke-width="1"/>
  </g>
</svg>
