<svg xmlns="http://www.w3.org/2000/svg" width="55" height="36" viewBox="0 0 55 36">
  <g id="Visa-Logo" transform="translate(-3666.405 391.614)">
    <rect id="Backing_white" data-name="Backing white" width="55" height="36" rx="5" transform="translate(3666.405 -391.614)" fill="#fff"/>
    <g id="Group_20" data-name="Group 20" transform="translate(3674.256 -379.457)">
      <path id="Path_2344" data-name="Path 2344" d="M3785.759-311.021l1.937-11.327h3.094l-1.937,11.327Z" transform="translate(-3772.338 322.535)" fill="#0058a0" fill-rule="evenodd"/>
      <path id="Path_2345" data-name="Path 2345" d="M3823.251-322.931a8.289,8.289,0,0,0-2.765-.469c-3.062,0-5.2,1.531-5.218,3.734-.016,1.625,1.531,2.531,2.7,3.078,1.2.562,1.609.906,1.593,1.406,0,.766-.953,1.109-1.843,1.109a6.494,6.494,0,0,1-2.906-.594l-.406-.187-.422,2.531a9.476,9.476,0,0,0,3.437.609c3.25,0,5.343-1.515,5.375-3.874.016-1.281-.812-2.265-2.594-3.078-1.078-.516-1.734-.859-1.734-1.39,0-.484.563-.984,1.765-.984a5.571,5.571,0,0,1,2.312.438l.281.125.422-2.453Z" transform="translate(-3795.535 323.4)" fill="#0058a0" fill-rule="evenodd"/>
      <path id="Path_2346" data-name="Path 2346" d="M3870.795-322.26h-2.39a1.556,1.556,0,0,0-1.625.937l-4.577,10.39h3.234s.531-1.406.656-1.7h3.953c.094.391.375,1.7.375,1.7h2.859l-2.484-11.327Zm-3.812,7.3c.25-.641,1.234-3.156,1.234-3.156-.031.031.25-.656.406-1.078l.2.969s.594,2.7.719,3.265Z" transform="translate(-3835.158 322.463)" fill="#0058a0" fill-rule="evenodd"/>
      <path id="Path_2347" data-name="Path 2347" d="M3736.138-322.26l-3.031,7.718-.312-1.562a8.872,8.872,0,0,0-4.281-4.749l2.765,9.905h3.265l4.859-11.311Z" transform="translate(-3725.295 322.463)" fill="#0058a0" fill-rule="evenodd"/>
      <path id="Path_2348" data-name="Path 2348" d="M3715.47-322.348h-4.984l-.031.25c3.859.937,6.437,3.2,7.5,5.921l-1.094-5.2a1.3,1.3,0,0,0-1.39-.969Z" transform="translate(-3710.455 322.535)" fill="#faa61a" fill-rule="evenodd"/>
    </g>
  </g>
</svg>
