<svg xmlns="http://www.w3.org/2000/svg" width="217.701" height="66.419" viewBox="0 0 217.701 66.419">
  <g id="M._Recht-Logo-REV" data-name="M. Recht-Logo-REV" transform="translate(-749.627 -36.521)">
    <path id="Path_2319" data-name="Path 2319" d="M752.58,36.521v64.716l.039,1.7,1.6-1.7.065-.075,1.368,1.709,1.6-1.709,1.531,1.709,1.6-1.709,1.531,1.709,1.6-1.709,1.531,1.709,1.6-1.709,1.531,1.709,1.6-1.709,1.531,1.709,1.6-1.709,1.531,1.709,1.6-1.709,1.531,1.709,1.6-1.709,1.531,1.709,1.6-1.709,1.531,1.709,1.6-1.709,1.531,1.709,1.6-1.709,1.531,1.709,1.6-1.709,1.531,1.709,1.6-1.709,1.531,1.709,1.6-1.709,1.531,1.709,1.6-1.709,1.531,1.709,1.6-1.709,1.531,1.709,1.6-1.709,1.531,1.709,1.6-1.709,1.6,1.71.02-66.352Z" transform="translate(-1.346 0)" fill="#fff" fill-rule="evenodd"/>
    <path id="Path_2320" data-name="Path 2320" d="M794.967,107c2.938-.076,3.126-1.093,3.126-3.73V83h-2.976V82.44h9.267l6.329,17.216,6.14-17.216h8.816V83h-2.939v24h2.939v.565H814.18V107h2.976V83.871l-8.325,23.7h-1.168l-8.74-24.374v20.079c0,2.675.188,3.654,3.127,3.73v.565h-7.082Z" transform="translate(-20.666 -20.93)" fill="#1a1818"/>
    <path id="Path_2321" data-name="Path 2321" d="M872.95,94.044V83h1.77c3.956,0,5.312,1.356,5.312,5.35,0,3.918-1.507,5.689-5.01,5.689Zm0,12.959V94.608c.339,0,.678-.038.979-.038,4.257,0,5.575,1.469,5.839,5.462.151,2.6-.075,4.747,1.168,6.4a4.378,4.378,0,0,0,3.616,1.733,7.619,7.619,0,0,0,4.257-1.281l-.226-.415a2.954,2.954,0,0,1-1.168.377c-2.072,0-1.808-1.922-2.035-5.538-.263-4.332-2.523-6.517-7.195-6.932v-.188c5.161-.716,7.572-2.525,7.572-5.877,0-3.805-3.278-5.877-9.758-5.877H864.4V83h2.976v24H864.4v.565h11.866V107Z" transform="translate(-52.312 -20.93)" fill="#fff"/>
    <path id="Path_2322" data-name="Path 2322" d="M919.565,105.784h-4.521v-2.3c0-2.787.339-4.144,2.223-4.144,1.922,0,2.3,1.092,2.3,3.805Zm5.2.565c-.113-4.559-3.24-7.572-7.083-7.572a8.135,8.135,0,0,0-7.874,8.288,8.052,8.052,0,0,0,8.326,8.4c3.617,0,6.216-2.3,6.969-6.177h-.565c-.9,3.427-3.014,5.349-5.613,5.349-2.749,0-3.88-1.733-3.88-5.613v-2.674Z" transform="translate(-73.01 -28.376)" fill="#fff"/>
    <path id="Path_2323" data-name="Path 2323" d="M955.725,110.04c-.641,3.5-2.976,5.425-6.593,5.425a8.251,8.251,0,0,1-8.589-8.213,8.166,8.166,0,0,1,3.126-6.366,8.987,8.987,0,0,1,5.689-2.109c3.805,0,6.1,1.883,6.1,4.257a2.141,2.141,0,0,1-2.373,2.3,2.218,2.218,0,0,1-2.448-2.373c0-1.432,1.243-1.959,1.243-2.411,0-.6-.866-1.167-2.448-1.167-2.826,0-3.541,1.77-3.541,5.8v3.428c0,4.219.791,6.216,3.8,6.216,2.6,0,4.709-1.733,5.463-4.785Z" transform="translate(-87.019 -28.376)" fill="#fff"/>
    <path id="Path_2324" data-name="Path 2324" d="M979.745,106.655v.565h-9.229v-.565h2.147v-24h-2.147v-.565h2.939a13.7,13.7,0,0,0,3.955-.415V94.487a6.533,6.533,0,0,1,5.839-3.5c3.24,0,5.2,1.77,5.2,4.708v10.963h2.109v.565H981.4v-.565h2.072V94.9c0-1.845-.339-2.749-1.883-2.749-2.147,0-3.956,1.883-3.956,4.9v9.606Z" transform="translate(-100.68 -20.582)" fill="#fff"/>
    <path id="Path_2325" data-name="Path 2325" d="M1009.08,93.424c3.2,0,5.575-2.6,6.329-7.384h.565v7.384h3.391v.564h-3.391v11.867c0,1.658.3,2.411,1.205,2.411a2.483,2.483,0,0,0,2.072-1.507l.49.3a5.093,5.093,0,0,1-4.6,2.6c-3.315,0-4.144-1.808-4.144-5.425V93.988h-2v-.564Z" transform="translate(-118.223 -22.57)" fill="#fff"/>
    <g id="Group_16" data-name="Group 16" transform="translate(870.135 93.453)">
      <path id="Path_2326" data-name="Path 2326" d="M972.393,145.789l1.167-3.824,1.13,3.824Zm-.706,2.335.537-1.808h2.609l.556,1.808h.669l-2.129-6.78h-.687l-2.175,6.78Z" transform="translate(-971.065 -141.231)" fill="#fff"/>
      <path id="Path_2327" data-name="Path 2327" d="M994.215,146.06v.027c0,1.319-.687,2.064-1.874,2.064a1.746,1.746,0,0,1-1.544-.792,4.626,4.626,0,0,1-.367-2.429v-.264a8.461,8.461,0,0,1,.2-2.326,1.714,1.714,0,0,1,1.752-1.186c1.252,0,1.78.565,1.78,1.893v.037h-.631c-.01-.988-.33-1.431-1.13-1.431-1.083,0-1.328.848-1.328,2.666a14.285,14.285,0,0,0,.122,2.279,1.134,1.134,0,0,0,1.159,1.017c.753,0,1.214-.518,1.214-1.4v-.15Z" transform="translate(-979.891 -141.144)" fill="#fff"/>
      <path id="Path_2328" data-name="Path 2328" d="M1011.9,146.06v.027c0,1.319-.688,2.064-1.874,2.064a1.744,1.744,0,0,1-1.544-.792,4.619,4.619,0,0,1-.368-2.429v-.264a8.477,8.477,0,0,1,.2-2.326,1.715,1.715,0,0,1,1.752-1.186c1.252,0,1.78.565,1.78,1.893v.037h-.631c-.009-.988-.329-1.431-1.13-1.431-1.083,0-1.328.848-1.328,2.666a14.271,14.271,0,0,0,.122,2.279,1.134,1.134,0,0,0,1.158,1.017c.754,0,1.215-.518,1.215-1.4v-.15Z" transform="translate(-987.953 -141.144)" fill="#fff"/>
      <path id="Path_2329" data-name="Path 2329" d="M1026.028,148.124v-6.78h3.042v.527h-2.43v2.506h2.288v.5h-2.288v2.684h2.43v.565Z" transform="translate(-996.117 -141.231)" fill="#fff"/>
      <path id="Path_2330" data-name="Path 2330" d="M1042.885,146.118a1.739,1.739,0,0,0-.01.226c0,.847.415,1.281,1.224,1.281a1.154,1.154,0,0,0,1.243-1.215c0-.706-.49-1.017-1.328-1.554a10.448,10.448,0,0,1-1.187-.819,1.652,1.652,0,0,1-.518-1.271,1.627,1.627,0,0,1,1.855-1.629,1.568,1.568,0,0,1,1.752,1.723V143h-.622v-.066c0-.857-.367-1.281-1.167-1.281a1.069,1.069,0,0,0-1.2,1.073c0,.763.6,1.14,1.572,1.743.933.574,1.451.961,1.451,1.864a1.689,1.689,0,0,1-1.893,1.809,1.607,1.607,0,0,1-1.818-1.79,1.983,1.983,0,0,1,.009-.235Z" transform="translate(-1003.508 -141.136)" fill="#fff"/>
      <path id="Path_2331" data-name="Path 2331" d="M1060.57,146.118a1.83,1.83,0,0,0-.009.226c0,.847.414,1.281,1.224,1.281a1.154,1.154,0,0,0,1.243-1.215c0-.706-.49-1.017-1.328-1.554a10.388,10.388,0,0,1-1.186-.819,1.648,1.648,0,0,1-.518-1.271,1.627,1.627,0,0,1,1.855-1.629,1.567,1.567,0,0,1,1.751,1.723V143h-.621v-.066c0-.857-.367-1.281-1.168-1.281a1.069,1.069,0,0,0-1.2,1.073c0,.763.6,1.14,1.573,1.743.932.574,1.45.961,1.45,1.864a1.689,1.689,0,0,1-1.893,1.809,1.608,1.608,0,0,1-1.818-1.79,1.885,1.885,0,0,1,.01-.235Z" transform="translate(-1011.569 -141.136)" fill="#fff"/>
      <path id="Path_2332" data-name="Path 2332" d="M1078.265,144.647c0-2.053.216-2.986,1.45-2.986s1.441.922,1.441,2.986-.208,2.976-1.441,2.976S1078.265,146.7,1078.265,144.647Zm-.631,0c0,1.394.047,2.325.537,2.9a2.279,2.279,0,0,0,3.089,0c.489-.575.537-1.507.537-2.9s-.047-2.317-.537-2.9a2.307,2.307,0,0,0-3.089,0C1077.672,142.33,1077.634,143.272,1077.634,144.647Z" transform="translate(-1019.639 -141.144)" fill="#fff"/>
      <path id="Path_2333" data-name="Path 2333" d="M1097.021,144.376v-2.533h.838c1.027,0,1.442.2,1.442,1.149,0,1.045-.415,1.384-1.564,1.384Zm1.253.481c.631,0,.876.263.942.876.038.367-.019,1.167.094,2.392h.659a13.106,13.106,0,0,1-.122-1.7V146c0-.866-.161-1.261-.914-1.4.706-.16.98-.641.98-1.535,0-1.441-.575-1.714-2.138-1.714h-1.347v6.78h.593v-3.267Z" transform="translate(-1028.205 -141.231)" fill="#fff"/>
      <path id="Path_2334" data-name="Path 2334" d="M1114.115,141.344h.612v6.78h-.612Z" transform="translate(-1036.266 -141.231)" fill="#fff"/>
      <path id="Path_2335" data-name="Path 2335" d="M1126.627,148.124v-6.78h3.042v.527h-2.43v2.506h2.288v.5h-2.288v2.684h2.43v.565Z" transform="translate(-1041.969 -141.231)" fill="#fff"/>
      <path id="Path_2336" data-name="Path 2336" d="M1143.483,146.118a1.83,1.83,0,0,0-.009.226c0,.847.414,1.281,1.224,1.281a1.154,1.154,0,0,0,1.243-1.215c0-.706-.49-1.017-1.328-1.554a10.378,10.378,0,0,1-1.186-.819,1.648,1.648,0,0,1-.518-1.271,1.627,1.627,0,0,1,1.855-1.629,1.567,1.567,0,0,1,1.752,1.723V143h-.622v-.066c0-.857-.368-1.281-1.168-1.281a1.07,1.07,0,0,0-1.2,1.073c0,.763.6,1.14,1.573,1.743.932.574,1.45.961,1.45,1.864a1.689,1.689,0,0,1-1.893,1.809,1.607,1.607,0,0,1-1.818-1.79,1.983,1.983,0,0,1,.009-.235Z" transform="translate(-1049.36 -141.136)" fill="#fff"/>
    </g>
    <g id="Group_17" data-name="Group 17" transform="translate(806.691 84.266)">
      <path id="Path_2337" data-name="Path 2337" d="M856.811,125.418a1.163,1.163,0,1,0-1.163,1.164A1.163,1.163,0,0,0,856.811,125.418Z" transform="translate(-854.485 -124.255)" fill="#1a1818"/>
      <path id="Path_2338" data-name="Path 2338" d="M856.623,126.392" transform="translate(-855.459 -125.229)" fill="#1a1818"/>
    </g>
    <path id="Path_2339" data-name="Path 2339" d="M773.113,98.72a8,8,0,1,0,8,8A8,8,0,0,0,773.113,98.72Zm-2.48,12.061a1.436,1.436,0,1,1,1.436-1.436A1.436,1.436,0,0,1,770.633,110.781Zm.024-5a1.436,1.436,0,1,1,1.436-1.436A1.436,1.436,0,0,1,770.656,105.785Zm5.01-2.872a1.436,1.436,0,1,1-1.437,1.436A1.435,1.435,0,0,1,775.667,102.913Zm.008,7.868a1.436,1.436,0,1,1,1.437-1.436A1.436,1.436,0,0,1,775.675,110.781Z" transform="translate(-7.06 -28.35)" fill="#e50019"/>
    <path id="Path_2340" data-name="Path 2340" d="M749.627,155v1.088" transform="translate(0 -54.003)" fill="none" fill-rule="evenodd"/>
    <line id="Line_78" data-name="Line 78" y1="0.544" transform="translate(749.627 100.999)" fill="none"/>
  </g>
</svg>
